<svg xmlns="http://www.w3.org/2000/svg" width="221" height="93" viewBox="0 0 221 93" fill="none"><g clip-path="url(#clip0_10_8)"><path d="M18.7877 24.0409C26.6969 24.0409 33.5324 19.7455 37.2443 13.424C33.5324 7.10248 26.7026 2.80704 18.7877 2.80704C10.8728 2.80704 4.04294 7.10248 0.331055 13.424C4.04294 19.7455 10.8728 24.0409 18.7877 24.0409Z" fill="#22356A" stroke="url(#paint0_linear_10_8)" stroke-miterlimit="10"></path><path d="M62.1314 24.0409C70.0406 24.0409 76.8762 19.7455 80.5881 13.424C76.8762 7.10248 70.0463 2.80704 62.1314 2.80704C54.2166 2.80704 47.3867 7.10248 43.6748 13.424C47.3867 19.7455 54.2166 24.0409 62.1314 24.0409Z" fill="#22356A"></path><path d="M18.7877 58.4214C26.6969 58.4214 33.5324 54.126 37.2443 47.8045C33.5324 41.483 26.7026 37.1876 18.7877 37.1876C10.8728 37.1876 4.04294 41.483 0.331055 47.8045C4.04294 54.126 10.8728 58.4214 18.7877 58.4214Z" fill="#22356A"></path><path d="M62.1314 58.5176C70.0406 58.5176 76.8762 54.2222 80.5881 47.9007C76.8762 41.5792 70.0463 37.2838 62.1314 37.2838C54.2166 37.2838 47.3867 41.5792 43.6748 47.9007C47.3867 54.2222 54.2166 58.5176 62.1314 58.5176Z" fill="#22356A"></path><path d="M18.7877 93C26.6969 93 33.5324 88.7046 37.2443 82.3831C33.5324 76.0616 26.7026 71.7661 18.7877 71.7661C10.8728 71.7661 4.04294 76.0616 0.331055 82.3831C4.04294 88.7046 10.8728 93 18.7877 93Z" fill="#22356A"></path><path d="M99.9468 0H103.716V8.00231H103.933C104.475 7.31753 105.166 6.77424 106.006 6.36676C106.845 5.95929 107.805 5.76121 108.895 5.76121C110.574 5.76121 111.882 6.21396 112.824 7.1138C113.766 8.01929 114.24 9.46242 114.24 11.4602V22.5185H110.471V12.1167C110.471 10.9961 110.214 10.1981 109.7 9.71709C109.187 9.24171 108.427 8.99836 107.422 8.99836C106.417 8.99836 105.492 9.37187 104.784 10.1189C104.07 10.8659 103.716 11.8224 103.716 12.9825V22.5129H99.9468V0Z" fill="#22356A"></path><path d="M119.637 21.9073C118.558 21.2508 118.021 20.0454 118.021 18.2797C118.021 16.1801 118.923 14.7086 120.722 13.8597C122.527 13.0108 125.079 12.5807 128.391 12.5807V11.2112C128.391 10.4245 128.186 9.80764 127.78 9.37187C127.375 8.93611 126.633 8.71539 125.565 8.71539C124.497 8.71539 123.669 8.89083 123.206 9.24737C122.744 9.59825 122.515 10.034 122.515 10.5547V10.9904H118.872C118.849 10.8659 118.838 10.6396 118.838 10.3057C118.838 8.89649 119.449 7.7816 120.676 6.97231C121.904 6.16303 123.532 5.75555 125.565 5.75555C127.763 5.75555 129.414 6.20264 130.516 7.09682C131.618 7.99099 132.166 9.26435 132.166 10.9282V18.7437C132.166 19.1173 132.269 19.3946 132.48 19.57C132.692 19.7455 132.954 19.836 133.268 19.836H134.273V22.3884C133.605 22.6996 132.817 22.8581 131.915 22.8581C131.098 22.8581 130.419 22.66 129.87 22.2639C129.322 21.8677 128.957 21.3301 128.768 20.6453H128.551C127.312 22.1394 125.553 22.8864 123.269 22.8864C121.927 22.8864 120.716 22.5581 119.637 21.9073ZM127.318 18.84C128.032 18.1325 128.386 17.1818 128.386 15.9763V15.2293C126.353 15.2293 124.76 15.4217 123.612 15.8065C122.458 16.1914 121.881 16.8931 121.881 17.9062C121.881 19.2361 122.721 19.8983 124.394 19.8983C125.633 19.8983 126.604 19.5474 127.318 18.84Z" fill="#22356A"></path><path d="M137.408 6.13472H140.52L140.835 8.31356H141.052C141.657 7.50428 142.411 6.87609 143.296 6.429C144.187 5.98191 145.209 5.7612 146.362 5.7612C148.036 5.7612 149.349 6.21395 150.291 7.11378C151.234 8.01928 151.708 9.46241 151.708 11.4602V22.5185H147.939V12.1166C147.939 10.9961 147.682 10.1981 147.168 9.71708C146.654 9.2417 145.894 8.99834 144.889 8.99834C143.884 8.99834 142.959 9.37186 142.251 10.1189C141.537 10.8659 141.183 11.8224 141.183 12.9825V22.5129H137.414V6.13472H137.408Z" fill="#22356A"></path><path d="M156.705 6.13472H159.817L160.131 8.31356H160.348C160.953 7.50428 161.707 6.87609 162.592 6.429C163.483 5.98191 164.505 5.7612 165.659 5.7612C167.332 5.7612 168.645 6.21395 169.588 7.11378C170.53 8.01928 171.004 9.46241 171.004 11.4602V22.5185H167.235V12.1166C167.235 10.9961 166.978 10.1981 166.464 9.71708C165.95 9.2417 165.191 8.99834 164.185 8.99834C163.18 8.99834 162.255 9.37186 161.547 10.1189C160.833 10.8659 160.479 11.8224 160.479 12.9825V22.5129H156.71V6.13472H156.705Z" fill="#22356A"></path><path d="M176.389 21.9073C175.31 21.2508 174.773 20.0454 174.773 18.2797C174.773 16.1801 175.675 14.7086 177.474 13.8597C179.279 13.0108 181.831 12.5807 185.143 12.5807V11.2112C185.143 10.4245 184.938 9.80764 184.532 9.37187C184.121 8.93611 183.385 8.71539 182.317 8.71539C181.249 8.71539 180.421 8.89083 179.958 9.24737C179.496 9.59825 179.267 10.034 179.267 10.5547V10.9904H175.624C175.601 10.8659 175.595 10.6396 175.595 10.3057C175.595 8.89649 176.206 7.7816 177.434 6.97231C178.662 6.16303 180.289 5.75555 182.322 5.75555C184.521 5.75555 186.171 6.20264 187.273 7.09682C188.376 7.99099 188.924 9.26435 188.924 10.9282V18.7437C188.924 19.1173 189.027 19.3946 189.238 19.57C189.449 19.7455 189.712 19.836 190.026 19.836H191.031V22.3884C190.363 22.6996 189.575 22.8581 188.673 22.8581C187.856 22.8581 187.176 22.66 186.628 22.2639C186.086 21.8677 185.714 21.3301 185.526 20.6453H185.309C184.07 22.1394 182.311 22.8864 180.027 22.8864C178.685 22.8864 177.474 22.5581 176.395 21.9073H176.389ZM184.076 18.84C184.789 18.1325 185.143 17.1818 185.143 15.9763V15.2293C183.11 15.2293 181.517 15.4217 180.364 15.8065C179.21 16.1914 178.633 16.8931 178.633 17.9062C178.633 19.2361 179.473 19.8983 181.146 19.8983C182.379 19.8983 183.356 19.5474 184.07 18.84H184.076Z" fill="#22356A"></path><path d="M194.16 0H197.929V8.00231H198.146C198.689 7.31753 199.38 6.77424 200.219 6.36676C201.059 5.95929 202.024 5.76121 203.109 5.76121C204.782 5.76121 206.095 6.21396 207.038 7.1138C207.98 8.01929 208.454 9.46242 208.454 11.4602V22.5185H204.685V12.1167C204.685 10.9961 204.428 10.1981 203.914 9.71709C203.4 9.24171 202.64 8.99836 201.635 8.99836C200.63 8.99836 199.705 9.37187 198.997 10.1189C198.283 10.8659 197.929 11.8224 197.929 12.9825V22.5129H194.16V0Z" fill="#22356A"></path><path d="M100.341 56.5142C99.2614 55.8577 98.7246 54.6523 98.7246 52.8866C98.7246 50.7869 99.6269 49.3155 101.426 48.4666C103.225 47.6177 105.783 47.1876 109.095 47.1876V45.818C109.095 45.0314 108.889 44.4145 108.484 43.9787C108.073 43.543 107.336 43.3223 106.268 43.3223C105.2 43.3223 104.372 43.4977 103.91 43.8542C103.447 44.2051 103.219 44.6409 103.219 45.1616V45.5973H99.5755C99.5526 45.4728 99.5412 45.2464 99.5412 44.9125C99.5412 43.5034 100.152 42.3885 101.38 41.5792C102.608 40.7699 104.235 40.3624 106.268 40.3624C108.467 40.3624 110.117 40.8095 111.219 41.7037C112.322 42.5979 112.87 43.8712 112.87 45.5351V53.3506C112.87 53.7241 112.973 54.0014 113.184 54.1769C113.395 54.3523 113.658 54.4429 113.972 54.4429H114.977V56.9952C114.309 57.3065 113.521 57.465 112.618 57.465C111.802 57.465 111.122 57.2669 110.574 56.8707C110.032 56.4746 109.66 55.9369 109.472 55.2522H109.249C108.01 56.7462 106.251 57.4933 103.967 57.4933C102.625 57.4933 101.414 57.165 100.335 56.5142H100.341ZM108.027 53.4468C108.741 52.7394 109.095 51.7886 109.095 50.5832V49.8362C107.062 49.8362 105.469 50.0286 104.321 50.4134C103.167 50.7983 102.591 51.5 102.591 52.513C102.591 53.843 103.43 54.5051 105.103 54.5051C106.337 54.5051 107.313 54.1542 108.027 53.4468Z" fill="#22356A"></path><path d="M118.112 40.7416H121.225L121.567 43.3279H121.79C122.544 41.3528 123.783 40.3681 125.496 40.3681C126.084 40.3681 126.604 40.4643 127.067 40.6511V44.1712H125.873C123.212 44.1712 121.881 45.6426 121.881 48.5911V57.1254H118.112V40.7416Z" fill="#22356A"></path><path d="M131.344 55.4106C130.047 54.0184 129.396 51.8622 129.396 48.9307C129.396 45.9991 130.053 43.8429 131.361 42.4507C132.669 41.0585 134.656 40.3624 137.317 40.3624C139.744 40.3624 141.566 41.0359 142.771 42.3885C143.976 43.7411 144.575 45.8463 144.575 48.71V49.8305H133.228C133.291 51.4491 133.639 52.6375 134.279 53.3959C134.919 54.1542 135.941 54.5334 137.346 54.5334C138.391 54.5334 139.242 54.2674 139.893 53.7411C140.544 53.2091 140.869 52.4281 140.869 51.3925H144.575C144.575 53.4072 143.907 54.9296 142.565 55.9539C141.223 56.9839 139.476 57.4933 137.317 57.4933C134.633 57.4933 132.646 56.7972 131.344 55.405V55.4106ZM140.646 47.1876C140.646 44.6126 139.533 43.3279 137.317 43.3279C136.061 43.3279 135.113 43.6448 134.473 44.2787C133.834 44.9125 133.44 45.8803 133.297 47.1933H140.652L140.646 47.1876Z" fill="#22356A"></path><path d="M148.595 40.7416H151.707L152.022 42.9205H152.239C152.844 42.1112 153.598 41.483 154.483 41.0359C155.374 40.5888 156.396 40.3681 157.549 40.3681C159.223 40.3681 160.536 40.8209 161.478 41.7207C162.421 42.6262 162.895 44.0693 162.895 46.0671V57.1254H159.126V46.7235C159.126 45.603 158.869 44.805 158.355 44.324C157.841 43.8486 157.081 43.6052 156.076 43.6052C155.071 43.6052 154.146 43.9788 153.438 44.7258C152.724 45.4728 152.37 46.4293 152.37 47.5894V57.1198H148.601V40.736L148.595 40.7416Z" fill="#22356A"></path><path d="M168.548 55.3767C167.395 53.9675 166.818 51.8056 166.818 48.8967C166.818 45.9878 167.395 43.9448 168.548 42.513C169.702 41.0812 171.238 40.3624 173.168 40.3624C175.475 40.3624 177.125 41.1208 178.131 42.6375H178.319V34.6012H182.088V57.1198H178.976L178.662 54.9409H178.473C177.931 55.7728 177.217 56.4067 176.337 56.8425C175.458 57.2782 174.481 57.4989 173.414 57.4989C171.318 57.4989 169.696 56.7915 168.542 55.3823L168.548 55.3767ZM177.411 52.9941C178.016 52.1339 178.325 50.8492 178.325 49.1457V48.7722C178.325 45.303 177.068 43.5713 174.556 43.5713C173.174 43.5713 172.186 43.9844 171.603 44.7994C171.015 45.62 170.724 46.9329 170.724 48.7383V49.1457C170.724 50.9341 171.015 52.2357 171.603 53.0563C172.192 53.877 173.174 54.2844 174.556 54.2844C175.852 54.2844 176.806 53.8543 177.417 52.9941H177.411Z" fill="#22356A"></path><path d="M188.336 56.3274C187.719 55.5465 187.411 54.5787 187.411 53.4129V43.792H185.4V40.7416H187.473L188.164 36.1632H191.18V40.7416H194.006V43.792H191.18V53.0394C191.18 53.9732 191.631 54.4429 192.533 54.4429H194.012V56.9953C193.675 57.1198 193.258 57.2329 192.756 57.3405C192.253 57.4423 191.791 57.4933 191.374 57.4933C189.969 57.4933 188.958 57.1028 188.341 56.3274H188.336Z" fill="#22356A"></path><path d="M99.9468 69.2081H103.653V72.881H99.9468V69.2081ZM99.9468 75.3429H103.716V91.7267H99.9468V75.3429Z" fill="#2D7769"></path><path d="M108.781 75.3428H111.894L112.208 77.5217H112.43C113.036 76.7124 113.789 76.0842 114.675 75.6371C115.565 75.19 116.588 74.9693 117.741 74.9693C119.414 74.9693 120.728 75.4221 121.67 76.3219C122.612 77.2274 123.086 78.6762 123.086 80.6683V91.7266H119.317V81.3248C119.317 80.2042 119.06 79.4063 118.546 78.9252C118.032 78.4498 117.273 78.2065 116.268 78.2065C115.263 78.2065 114.338 78.58 113.63 79.327C112.916 80.0741 112.562 81.0305 112.562 82.1906V91.721H108.793V75.3372L108.781 75.3428Z" fill="#2D7769"></path><path d="M129.031 90.6966C127.786 89.7628 127.164 88.5461 127.164 87.052C127.164 86.8653 127.164 86.7408 127.181 86.6785C127.198 86.6163 127.198 86.5766 127.198 86.554H130.875V86.803C130.898 87.6123 131.247 88.2122 131.926 88.597C132.606 88.9819 133.462 89.1743 134.485 89.1743C135.41 89.1743 136.192 89.0215 136.843 88.7215C137.494 88.4216 137.82 87.9688 137.82 87.3689C137.82 86.8936 137.643 86.5031 137.283 86.2031C136.929 85.9032 136.489 85.6655 135.964 85.4844C135.438 85.3089 134.696 85.1052 133.731 84.8788C132.429 84.5676 131.367 84.2563 130.544 83.945C129.716 83.6338 129.008 83.1471 128.426 82.4793C127.843 81.8115 127.546 80.9456 127.546 79.8646C127.546 78.3083 128.197 77.1029 129.493 76.254C130.79 75.4051 132.48 74.975 134.553 74.975C135.832 74.975 136.974 75.1617 137.979 75.5353C138.985 75.9088 139.767 76.4351 140.321 77.1086C140.875 77.782 141.155 78.5573 141.155 79.4289L141.12 80.1137H137.443V79.9892C137.443 79.344 137.174 78.8403 136.643 78.4781C136.106 78.1159 135.341 77.9348 134.336 77.9348C133.331 77.9348 132.606 78.0876 132.103 78.3876C131.601 78.6875 131.349 79.078 131.349 79.5534C131.349 80.1363 131.658 80.5664 132.275 80.8437C132.891 81.121 133.839 81.3983 135.118 81.67C136.5 81.9812 137.62 82.2982 138.465 82.6208C139.31 82.9433 140.052 83.447 140.681 84.1318C141.309 84.8166 141.623 85.739 141.623 86.9049C141.623 88.7102 140.966 90.0288 139.658 90.8608C138.351 91.6927 136.575 92.1058 134.33 92.1058C132.086 92.1058 130.282 91.6361 129.037 90.7023L129.031 90.6966Z" fill="#2D7769"></path><path d="M146.785 90.9287C146.169 90.1477 145.86 89.1799 145.86 88.0141V78.3932H143.85V75.3428H145.923L146.614 70.7644H149.629V75.3428H152.456V78.3932H149.629V87.6406C149.629 88.5744 150.08 89.0441 150.983 89.0441H152.462V91.5965C152.125 91.721 151.708 91.8342 151.205 91.936C150.703 92.0379 150.24 92.0945 149.823 92.0945C148.419 92.0945 147.408 91.704 146.791 90.9287H146.785Z" fill="#2D7769"></path><path d="M156.202 69.2081H159.908V72.881H156.202V69.2081ZM156.202 75.3429H159.971V91.7267H156.202V75.3429Z" fill="#2D7769"></path><path d="M166.178 90.9287C165.562 90.1477 165.253 89.1799 165.253 88.0141V78.3932H163.243V75.3428H165.316L166.007 70.7644H169.022V75.3428H171.849V78.3932H169.022V87.6406C169.022 88.5744 169.473 89.0441 170.376 89.0441H171.855V91.5965C171.518 91.721 171.101 91.8342 170.598 91.936C170.096 92.0379 169.633 92.0945 169.216 92.0945C167.812 92.0945 166.801 91.704 166.184 90.9287H166.178Z" fill="#2D7769"></path><path d="M175.492 86.4012V75.3428H179.261V85.7447C179.261 86.8653 179.518 87.6632 180.032 88.1443C180.546 88.6197 181.306 88.863 182.311 88.863C183.316 88.863 184.241 88.4895 184.949 87.7424C185.657 86.9954 186.017 86.039 186.017 84.8788V75.3485H189.786V91.7323H186.674L186.359 89.5534H186.142C185.537 90.3627 184.783 90.9909 183.898 91.438C183.007 91.8851 181.985 92.1058 180.832 92.1058C177.268 92.1058 175.492 90.2043 175.492 86.4068V86.4012Z" fill="#2D7769"></path><path d="M194.789 86.4012V75.3428H198.558V85.7447C198.558 86.8653 198.815 87.6632 199.328 88.1443C199.842 88.6197 200.602 88.863 201.607 88.863C202.612 88.863 203.537 88.4895 204.245 87.7424C204.953 86.9954 205.313 86.039 205.313 84.8788V75.3485H209.082V91.7323H205.97L205.656 89.5534H205.439C204.834 90.3627 204.08 90.9909 203.195 91.438C202.304 91.8851 201.282 92.1058 200.128 92.1058C196.565 92.1058 194.789 90.2043 194.789 86.4068V86.4012Z" fill="#2D7769"></path><path d="M215.324 90.9287C214.707 90.1477 214.399 89.1799 214.399 88.0141V78.3932H212.389V75.3428H214.462L215.153 70.7644H218.168V75.3428H220.995V78.3932H218.168V87.6406C218.168 88.5744 218.619 89.0441 219.521 89.0441H221V91.5965C220.663 91.721 220.246 91.8342 219.744 91.936C219.241 92.0379 218.779 92.0945 218.362 92.0945C216.957 92.0945 215.946 91.704 215.33 90.9287H215.324Z" fill="#2D7769"></path><path d="M62.1314 71.7661C54.2166 71.7661 47.3867 76.0616 43.6748 82.3831C47.3867 88.7046 54.2166 93 62.1314 93C70.0463 93 76.8762 88.7046 80.5881 82.3831C76.8762 76.0616 70.0463 71.7661 62.1314 71.7661ZM62.1314 87.8443C59.0877 87.8443 56.6207 85.3995 56.6207 82.3831C56.6207 79.3666 59.0877 76.9218 62.1314 76.9218C65.1752 76.9218 67.6422 79.3666 67.6422 82.3831C67.6422 85.3995 65.1752 87.8443 62.1314 87.8443Z" fill="#2D7769"></path></g><defs><linearGradient id="paint0_linear_10_8" x1="-0.000159758" y1="13.424" x2="37.5698" y2="13.424" gradientUnits="userSpaceOnUse"><stop stop-color="white"></stop><stop offset="0.06" stop-color="#22356A"></stop><stop offset="1" stop-color="#231F20"></stop></linearGradient><clipPath id="clip0_10_8"><rect width="221" height="93" fill="white"></rect></clipPath></defs></svg>